<svg width="16" height="16" viewBox="0 0 16 16" fill="none" xmlns="http://www.w3.org/2000/svg">
<mask id="mask0_2850_258" style="mask-type:alpha" maskUnits="userSpaceOnUse" x="0" y="0" width="16" height="16">
<rect width="16" height="16" fill="#D9D9D9"/>
</mask>
<g mask="url(#mask0_2850_258)">
<path d="M7.06927 11.0666L11.7693 6.36659L10.8359 5.43325L8.9526 7.31659L7.06927 9.19992L6.11927 8.24992L5.16927 7.29992L4.23594 8.23325L7.06927 11.0666ZM8.0026 14.6666C7.08038 14.6666 6.21372 14.4916 5.4026 14.1416C4.59149 13.7916 3.88594 13.3166 3.28594 12.7166C2.68594 12.1166 2.21094 11.411 1.86094 10.5999C1.51094 9.78881 1.33594 8.92214 1.33594 7.99992C1.33594 7.0777 1.51094 6.21103 1.86094 5.39992C2.21094 4.58881 2.68594 3.88325 3.28594 3.28325C3.88594 2.68325 4.59149 2.20825 5.4026 1.85825C6.21372 1.50825 7.08038 1.33325 8.0026 1.33325C8.92483 1.33325 9.79149 1.50825 10.6026 1.85825C11.4137 2.20825 12.1193 2.68325 12.7193 3.28325C13.3193 3.88325 13.7943 4.58881 14.1443 5.39992C14.4943 6.21103 14.6693 7.0777 14.6693 7.99992C14.6693 8.92214 14.4943 9.78881 14.1443 10.5999C13.7943 11.411 13.3193 12.1166 12.7193 12.7166C12.1193 13.3166 11.4137 13.7916 10.6026 14.1416C9.79149 14.4916 8.92483 14.6666 8.0026 14.6666Z" fill="#304BA0"/>
</g>
</svg>
