<svg width="352" height="56" viewBox="0 0 352 56" fill="none" xmlns="http://www.w3.org/2000/svg">
<rect width="352" height="56" rx="8" fill="#304BA0"/>
<path d="M139.56 28.4C139.56 27.3013 139.805 26.32 140.296 25.456C140.797 24.5813 141.475 23.904 142.328 23.424C143.192 22.9333 144.157 22.688 145.224 22.688C146.472 22.688 147.565 23.008 148.504 23.648C149.443 24.288 150.099 25.1733 150.472 26.304H147.896C147.64 25.7707 147.277 25.3707 146.808 25.104C146.349 24.8373 145.816 24.704 145.208 24.704C144.557 24.704 143.976 24.8587 143.464 25.168C142.963 25.4667 142.568 25.8933 142.28 26.448C142.003 27.0027 141.864 27.6533 141.864 28.4C141.864 29.136 142.003 29.7867 142.28 30.352C142.568 30.9067 142.963 31.3387 143.464 31.648C143.976 31.9467 144.557 32.096 145.208 32.096C145.816 32.096 146.349 31.9627 146.808 31.696C147.277 31.4187 147.64 31.0133 147.896 30.48H150.472C150.099 31.6213 149.443 32.512 148.504 33.152C147.576 33.7813 146.483 34.096 145.224 34.096C144.157 34.096 143.192 33.856 142.328 33.376C141.475 32.8853 140.797 32.208 140.296 31.344C139.805 30.48 139.56 29.4987 139.56 28.4ZM156.321 34.144C155.468 34.144 154.7 33.9573 154.017 33.584C153.335 33.2 152.796 32.6613 152.401 31.968C152.017 31.2747 151.825 30.4747 151.825 29.568C151.825 28.6613 152.023 27.8613 152.417 27.168C152.823 26.4747 153.372 25.9413 154.065 25.568C154.759 25.184 155.532 24.992 156.385 24.992C157.239 24.992 158.012 25.184 158.705 25.568C159.399 25.9413 159.943 26.4747 160.337 27.168C160.743 27.8613 160.945 28.6613 160.945 29.568C160.945 30.4747 160.737 31.2747 160.321 31.968C159.916 32.6613 159.361 33.2 158.657 33.584C157.964 33.9573 157.185 34.144 156.321 34.144ZM156.321 32.192C156.727 32.192 157.105 32.096 157.457 31.904C157.82 31.7013 158.108 31.4027 158.321 31.008C158.535 30.6133 158.641 30.1333 158.641 29.568C158.641 28.7253 158.417 28.08 157.969 27.632C157.532 27.1733 156.993 26.944 156.353 26.944C155.713 26.944 155.175 27.1733 154.737 27.632C154.311 28.08 154.097 28.7253 154.097 29.568C154.097 30.4107 154.305 31.0613 154.721 31.52C155.148 31.968 155.681 32.192 156.321 32.192ZM167.5 25.008C168.556 25.008 169.41 25.344 170.06 26.016C170.711 26.6773 171.036 27.6053 171.036 28.8V34H168.796V29.104C168.796 28.4 168.62 27.8613 168.268 27.488C167.916 27.104 167.436 26.912 166.828 26.912C166.21 26.912 165.719 27.104 165.356 27.488C165.004 27.8613 164.828 28.4 164.828 29.104V34H162.588V25.136H164.828V26.24C165.127 25.856 165.506 25.5573 165.964 25.344C166.434 25.12 166.946 25.008 167.5 25.008ZM175.775 26.976V31.264C175.775 31.5627 175.844 31.7813 175.983 31.92C176.132 32.048 176.377 32.112 176.719 32.112H177.759V34H176.351C174.463 34 173.519 33.0827 173.519 31.248V26.976H172.463V25.136H173.519V22.944H175.775V25.136H177.759V26.976H175.775ZM180.506 24.08C180.111 24.08 179.78 23.9573 179.514 23.712C179.258 23.456 179.13 23.1413 179.13 22.768C179.13 22.3947 179.258 22.0853 179.514 21.84C179.78 21.584 180.111 21.456 180.506 21.456C180.9 21.456 181.226 21.584 181.482 21.84C181.748 22.0853 181.882 22.3947 181.882 22.768C181.882 23.1413 181.748 23.456 181.482 23.712C181.226 23.9573 180.9 24.08 180.506 24.08ZM181.61 25.136V34H179.37V25.136H181.61ZM188.735 25.008C189.791 25.008 190.644 25.344 191.295 26.016C191.945 26.6773 192.271 27.6053 192.271 28.8V34H190.031V29.104C190.031 28.4 189.855 27.8613 189.503 27.488C189.151 27.104 188.671 26.912 188.063 26.912C187.444 26.912 186.953 27.104 186.591 27.488C186.239 27.8613 186.063 28.4 186.063 29.104V34H183.823V25.136H186.063V26.24C186.361 25.856 186.74 25.5573 187.199 25.344C187.668 25.12 188.18 25.008 188.735 25.008ZM202.769 25.136V34H200.513V32.88C200.225 33.264 199.846 33.568 199.377 33.792C198.918 34.0053 198.417 34.112 197.873 34.112C197.18 34.112 196.566 33.968 196.033 33.68C195.5 33.3813 195.078 32.9493 194.769 32.384C194.47 31.808 194.321 31.1253 194.321 30.336V25.136H196.561V30.016C196.561 30.72 196.737 31.264 197.089 31.648C197.441 32.0213 197.921 32.208 198.529 32.208C199.148 32.208 199.633 32.0213 199.985 31.648C200.337 31.264 200.513 30.72 200.513 30.016V25.136H202.769ZM213.219 29.376C213.219 29.696 213.198 29.984 213.155 30.24H206.675C206.728 30.88 206.952 31.3813 207.347 31.744C207.742 32.1067 208.227 32.288 208.803 32.288C209.635 32.288 210.227 31.9307 210.579 31.216H212.995C212.739 32.0693 212.248 32.7733 211.523 33.328C210.798 33.872 209.907 34.144 208.851 34.144C207.998 34.144 207.23 33.9573 206.547 33.584C205.875 33.2 205.347 32.6613 204.963 31.968C204.59 31.2747 204.403 30.4747 204.403 29.568C204.403 28.6507 204.59 27.8453 204.963 27.152C205.336 26.4587 205.859 25.9253 206.531 25.552C207.203 25.1787 207.976 24.992 208.851 24.992C209.694 24.992 210.446 25.1733 211.107 25.536C211.779 25.8987 212.296 26.416 212.659 27.088C213.032 27.7493 213.219 28.512 213.219 29.376ZM210.899 28.736C210.888 28.16 210.68 27.7013 210.275 27.36C209.87 27.008 209.374 26.832 208.787 26.832C208.232 26.832 207.763 27.0027 207.379 27.344C207.006 27.6747 206.776 28.1387 206.691 28.736H210.899Z" fill="white"/>
</svg>
