<svg width="352" height="56" viewBox="0 0 352 56" fill="none" xmlns="http://www.w3.org/2000/svg">
<rect width="352" height="56" rx="4" fill="#EEF2FF"/>
<mask id="mask0_1217_4081" style="mask-type:alpha" maskUnits="userSpaceOnUse" x="24" y="16" width="24" height="24">
<rect x="24" y="16" width="24" height="24" fill="#E6E6E6"/>
</mask>
<g mask="url(#mask0_1217_4081)">
<path d="M33.575 31.5L36 29.65L38.375 31.475L37.475 28.525L39.95 26.6H36.975L36 23.625L35.025 26.6H32.05L34.475 28.525L33.575 31.5ZM28 35.5C27.5833 35.5 27.2293 35.354 26.938 35.062C26.646 34.7707 26.5 34.4167 26.5 34V30.4C27.0667 30.3 27.5417 30.025 27.925 29.575C28.3083 29.125 28.5 28.6 28.5 28C28.5 27.4 28.3083 26.875 27.925 26.425C27.5417 25.975 27.0667 25.7 26.5 25.6V22C26.5 21.5833 26.646 21.2293 26.938 20.938C27.2293 20.646 27.5833 20.5 28 20.5H44C44.4167 20.5 44.7707 20.646 45.062 20.938C45.354 21.2293 45.5 21.5833 45.5 22V25.6C44.9333 25.7 44.4583 25.975 44.075 26.425C43.6917 26.875 43.5 27.4 43.5 28C43.5 28.6 43.6917 29.125 44.075 29.575C44.4583 30.025 44.9333 30.3 45.5 30.4V34C45.5 34.4167 45.354 34.7707 45.062 35.062C44.7707 35.354 44.4167 35.5 44 35.5H28ZM28 34H44V31.45C43.3833 31.0833 42.896 30.596 42.538 29.988C42.1793 29.3793 42 28.7167 42 28C42 27.2833 42.1793 26.6207 42.538 26.012C42.896 25.404 43.3833 24.9167 44 24.55V22H28V24.55C28.6167 24.9167 29.1043 25.404 29.463 26.012C29.821 26.6207 30 27.2833 30 28C30 28.7167 29.821 29.3793 29.463 29.988C29.1043 30.596 28.6167 31.0833 28 31.45V34Z" fill="#1C1B1F"/>
</g>
<path d="M67.846 30.83H63.59L62.806 33H61.462L64.99 23.298H66.46L69.974 33H68.63L67.846 30.83ZM67.482 29.794L65.718 24.866L63.954 29.794H67.482ZM72.7856 26.742C73.0376 26.3033 73.4109 25.9393 73.9056 25.65C74.4096 25.3513 74.9929 25.202 75.6556 25.202C76.3369 25.202 76.9529 25.3653 77.5036 25.692C78.0636 26.0187 78.5023 26.4807 78.8196 27.078C79.1369 27.666 79.2956 28.352 79.2956 29.136C79.2956 29.9107 79.1369 30.6013 78.8196 31.208C78.5023 31.8147 78.0636 32.286 77.5036 32.622C76.9529 32.958 76.3369 33.126 75.6556 33.126C75.0023 33.126 74.4236 32.9813 73.9196 32.692C73.4249 32.3933 73.0469 32.0247 72.7856 31.586V36.64H71.5116V25.328H72.7856V26.742ZM77.9936 29.136C77.9936 28.5573 77.8769 28.0533 77.6436 27.624C77.4103 27.1947 77.0929 26.868 76.6916 26.644C76.2996 26.42 75.8656 26.308 75.3896 26.308C74.9229 26.308 74.4889 26.4247 74.0876 26.658C73.6956 26.882 73.3783 27.2133 73.1356 27.652C72.9023 28.0813 72.7856 28.5807 72.7856 29.15C72.7856 29.7287 72.9023 30.2373 73.1356 30.676C73.3783 31.1053 73.6956 31.4367 74.0876 31.67C74.4889 31.894 74.9229 32.006 75.3896 32.006C75.8656 32.006 76.2996 31.894 76.6916 31.67C77.0929 31.4367 77.4103 31.1053 77.6436 30.676C77.8769 30.2373 77.9936 29.724 77.9936 29.136ZM82.2465 26.742C82.4985 26.3033 82.8719 25.9393 83.3665 25.65C83.8705 25.3513 84.4539 25.202 85.1165 25.202C85.7979 25.202 86.4139 25.3653 86.9645 25.692C87.5245 26.0187 87.9632 26.4807 88.2805 27.078C88.5979 27.666 88.7565 28.352 88.7565 29.136C88.7565 29.9107 88.5979 30.6013 88.2805 31.208C87.9632 31.8147 87.5245 32.286 86.9645 32.622C86.4139 32.958 85.7979 33.126 85.1165 33.126C84.4632 33.126 83.8845 32.9813 83.3805 32.692C82.8859 32.3933 82.5079 32.0247 82.2465 31.586V36.64H80.9725V25.328H82.2465V26.742ZM87.4545 29.136C87.4545 28.5573 87.3379 28.0533 87.1045 27.624C86.8712 27.1947 86.5539 26.868 86.1525 26.644C85.7605 26.42 85.3265 26.308 84.8505 26.308C84.3839 26.308 83.9499 26.4247 83.5485 26.658C83.1565 26.882 82.8392 27.2133 82.5965 27.652C82.3632 28.0813 82.2465 28.5807 82.2465 29.15C82.2465 29.7287 82.3632 30.2373 82.5965 30.676C82.8392 31.1053 83.1565 31.4367 83.5485 31.67C83.9499 31.894 84.3839 32.006 84.8505 32.006C85.3265 32.006 85.7605 31.894 86.1525 31.67C86.5539 31.4367 86.8712 31.1053 87.1045 30.676C87.3379 30.2373 87.4545 29.724 87.4545 29.136ZM91.7075 22.64V33H90.4335V22.64H91.7075ZM100.487 25.328L95.8668 36.612H94.5508L96.0628 32.916L92.9688 25.328H94.3828L96.7908 31.544L99.1708 25.328H100.487ZM105.024 28.114C105.024 27.162 105.239 26.308 105.668 25.552C106.097 24.7867 106.681 24.1893 107.418 23.76C108.165 23.3307 108.991 23.116 109.896 23.116C110.96 23.116 111.889 23.3727 112.682 23.886C113.475 24.3993 114.054 25.1273 114.418 26.07H112.892C112.621 25.482 112.229 25.0293 111.716 24.712C111.212 24.3947 110.605 24.236 109.896 24.236C109.215 24.236 108.603 24.3947 108.062 24.712C107.521 25.0293 107.096 25.482 106.788 26.07C106.48 26.6487 106.326 27.33 106.326 28.114C106.326 28.8887 106.48 29.57 106.788 30.158C107.096 30.7367 107.521 31.1847 108.062 31.502C108.603 31.8193 109.215 31.978 109.896 31.978C110.605 31.978 111.212 31.824 111.716 31.516C112.229 31.1987 112.621 30.746 112.892 30.158H114.418C114.054 31.0913 113.475 31.8147 112.682 32.328C111.889 32.832 110.96 33.084 109.896 33.084C108.991 33.084 108.165 32.874 107.418 32.454C106.681 32.0247 106.097 31.432 105.668 30.676C105.239 29.92 105.024 29.066 105.024 28.114ZM119.66 33.126C118.942 33.126 118.288 32.9627 117.7 32.636C117.122 32.3093 116.664 31.8473 116.328 31.25C116.002 30.6433 115.838 29.9433 115.838 29.15C115.838 28.366 116.006 27.6753 116.342 27.078C116.688 26.4713 117.154 26.0093 117.742 25.692C118.33 25.3653 118.988 25.202 119.716 25.202C120.444 25.202 121.102 25.3653 121.69 25.692C122.278 26.0093 122.74 26.4667 123.076 27.064C123.422 27.6613 123.594 28.3567 123.594 29.15C123.594 29.9433 123.417 30.6433 123.062 31.25C122.717 31.8473 122.246 32.3093 121.648 32.636C121.051 32.9627 120.388 33.126 119.66 33.126ZM119.66 32.006C120.118 32.006 120.547 31.8987 120.948 31.684C121.35 31.4693 121.672 31.1473 121.914 30.718C122.166 30.2887 122.292 29.766 122.292 29.15C122.292 28.534 122.171 28.0113 121.928 27.582C121.686 27.1527 121.368 26.8353 120.976 26.63C120.584 26.4153 120.16 26.308 119.702 26.308C119.236 26.308 118.806 26.4153 118.414 26.63C118.032 26.8353 117.724 27.1527 117.49 27.582C117.257 28.0113 117.14 28.534 117.14 29.15C117.14 29.7753 117.252 30.3027 117.476 30.732C117.71 31.1613 118.018 31.4833 118.4 31.698C118.783 31.9033 119.203 32.006 119.66 32.006ZM132.073 25.328V33H130.799V31.866C130.557 32.258 130.216 32.566 129.777 32.79C129.348 33.0047 128.872 33.112 128.349 33.112C127.752 33.112 127.215 32.9907 126.739 32.748C126.263 32.496 125.885 32.1227 125.605 31.628C125.335 31.1333 125.199 30.5313 125.199 29.822V25.328H126.459V29.654C126.459 30.41 126.651 30.9933 127.033 31.404C127.416 31.8053 127.939 32.006 128.601 32.006C129.283 32.006 129.819 31.796 130.211 31.376C130.603 30.956 130.799 30.3447 130.799 29.542V25.328H132.073ZM135.498 26.742C135.75 26.3033 136.124 25.9393 136.618 25.65C137.122 25.3513 137.706 25.202 138.368 25.202C139.05 25.202 139.666 25.3653 140.216 25.692C140.776 26.0187 141.215 26.4807 141.532 27.078C141.85 27.666 142.008 28.352 142.008 29.136C142.008 29.9107 141.85 30.6013 141.532 31.208C141.215 31.8147 140.776 32.286 140.216 32.622C139.666 32.958 139.05 33.126 138.368 33.126C137.715 33.126 137.136 32.9813 136.632 32.692C136.138 32.3933 135.76 32.0247 135.498 31.586V36.64H134.224V25.328H135.498V26.742ZM140.706 29.136C140.706 28.5573 140.59 28.0533 140.356 27.624C140.123 27.1947 139.806 26.868 139.404 26.644C139.012 26.42 138.578 26.308 138.102 26.308C137.636 26.308 137.202 26.4247 136.8 26.658C136.408 26.882 136.091 27.2133 135.848 27.652C135.615 28.0813 135.498 28.5807 135.498 29.15C135.498 29.7287 135.615 30.2373 135.848 30.676C136.091 31.1053 136.408 31.4367 136.8 31.67C137.202 31.894 137.636 32.006 138.102 32.006C138.578 32.006 139.012 31.894 139.404 31.67C139.806 31.4367 140.123 31.1053 140.356 30.676C140.59 30.2373 140.706 29.724 140.706 29.136ZM147.031 33.126C146.313 33.126 145.659 32.9627 145.071 32.636C144.493 32.3093 144.035 31.8473 143.699 31.25C143.373 30.6433 143.209 29.9433 143.209 29.15C143.209 28.366 143.377 27.6753 143.713 27.078C144.059 26.4713 144.525 26.0093 145.113 25.692C145.701 25.3653 146.359 25.202 147.087 25.202C147.815 25.202 148.473 25.3653 149.061 25.692C149.649 26.0093 150.111 26.4667 150.447 27.064C150.793 27.6613 150.965 28.3567 150.965 29.15C150.965 29.9433 150.788 30.6433 150.433 31.25C150.088 31.8473 149.617 32.3093 149.019 32.636C148.422 32.9627 147.759 33.126 147.031 33.126ZM147.031 32.006C147.489 32.006 147.918 31.8987 148.319 31.684C148.721 31.4693 149.043 31.1473 149.285 30.718C149.537 30.2887 149.663 29.766 149.663 29.15C149.663 28.534 149.542 28.0113 149.299 27.582C149.057 27.1527 148.739 26.8353 148.347 26.63C147.955 26.4153 147.531 26.308 147.073 26.308C146.607 26.308 146.177 26.4153 145.785 26.63C145.403 26.8353 145.095 27.1527 144.861 27.582C144.628 28.0113 144.511 28.534 144.511 29.15C144.511 29.7753 144.623 30.3027 144.847 30.732C145.081 31.1613 145.389 31.4833 145.771 31.698C146.154 31.9033 146.574 32.006 147.031 32.006ZM156.379 25.188C157.312 25.188 158.068 25.4727 158.647 26.042C159.225 26.602 159.515 27.414 159.515 28.478V33H158.255V28.66C158.255 27.8947 158.063 27.3113 157.681 26.91C157.298 26.4993 156.775 26.294 156.113 26.294C155.441 26.294 154.904 26.504 154.503 26.924C154.111 27.344 153.915 27.9553 153.915 28.758V33H152.641V25.328H153.915V26.42C154.167 26.028 154.507 25.7247 154.937 25.51C155.375 25.2953 155.856 25.188 156.379 25.188ZM164.312 33.126C163.724 33.126 163.196 33.028 162.73 32.832C162.263 32.6267 161.894 32.3467 161.624 31.992C161.353 31.628 161.204 31.2127 161.176 30.746H162.492C162.529 31.1287 162.706 31.4413 163.024 31.684C163.35 31.9267 163.775 32.048 164.298 32.048C164.783 32.048 165.166 31.9407 165.446 31.726C165.726 31.5113 165.866 31.2407 165.866 30.914C165.866 30.578 165.716 30.3307 165.418 30.172C165.119 30.004 164.657 29.8407 164.032 29.682C163.462 29.5327 162.996 29.3833 162.632 29.234C162.277 29.0753 161.969 28.8467 161.708 28.548C161.456 28.24 161.33 27.8387 161.33 27.344C161.33 26.952 161.446 26.5927 161.68 26.266C161.913 25.9393 162.244 25.6827 162.674 25.496C163.103 25.3 163.593 25.202 164.144 25.202C164.993 25.202 165.679 25.4167 166.202 25.846C166.724 26.2753 167.004 26.8633 167.042 27.61H165.768C165.74 27.2087 165.576 26.8867 165.278 26.644C164.988 26.4013 164.596 26.28 164.102 26.28C163.644 26.28 163.28 26.378 163.01 26.574C162.739 26.77 162.604 27.0267 162.604 27.344C162.604 27.596 162.683 27.806 162.842 27.974C163.01 28.1327 163.215 28.2633 163.458 28.366C163.71 28.4593 164.055 28.5667 164.494 28.688C165.044 28.8373 165.492 28.9867 165.838 29.136C166.183 29.276 166.477 29.4907 166.72 29.78C166.972 30.0693 167.102 30.4473 167.112 30.914C167.112 31.334 166.995 31.712 166.762 32.048C166.528 32.384 166.197 32.65 165.768 32.846C165.348 33.0327 164.862 33.126 164.312 33.126Z" fill="black"/>
<mask id="mask1_1217_4081" style="mask-type:alpha" maskUnits="userSpaceOnUse" x="312" y="20" width="16" height="16">
<rect x="312" y="20" width="16" height="16" fill="#E6E6E6"/>
</mask>
<g mask="url(#mask1_1217_4081)">
<path d="M317.348 34.4336L316.398 33.4836L321.882 28.0002L316.398 22.5169L317.348 21.5669L323.782 28.0002L317.348 34.4336Z" fill="#1C1B1F"/>
</g>
</svg>
