<svg width="16" height="16" viewBox="0 0 16 16" fill="none" xmlns="http://www.w3.org/2000/svg">
<mask id="mask0_1217_3888" style="mask-type:alpha" maskUnits="userSpaceOnUse" x="0" y="0" width="16" height="16">
<rect width="16" height="16" fill="#E6E6E6"/>
</mask>
<g mask="url(#mask0_1217_3888)">
<path d="M4.86667 13.6667C4.53333 13.6667 4.25 13.55 4.01667 13.3167C3.78333 13.0833 3.66667 12.8 3.66667 12.4667V3.99999H3V2.99999H6V2.41666H10V2.99999H13V3.99999H12.3333V12.4667C12.3333 12.8 12.2167 13.0833 11.9833 13.3167C11.75 13.55 11.4667 13.6667 11.1333 13.6667H4.86667ZM11.3333 3.99999H4.66667V12.4667C4.66667 12.5222 4.68622 12.5695 4.72533 12.6087C4.764 12.6473 4.81111 12.6667 4.86667 12.6667H11.1333C11.1778 12.6667 11.2222 12.6444 11.2667 12.6C11.3111 12.5555 11.3333 12.5111 11.3333 12.4667V3.99999ZM6.26667 11.3333H7.26667V5.33332H6.26667V11.3333ZM8.73333 11.3333H9.73333V5.33332H8.73333V11.3333ZM4.66667 3.99999V12.6667V12.4667V3.99999Z" fill="black"/>
</g>
</svg>
