<svg width="26" height="31" viewBox="0 0 26 31" fill="none" xmlns="http://www.w3.org/2000/svg">
<path fill-rule="evenodd" clip-rule="evenodd" d="M12.8727 0C11.4218 0 10.0303 0.628085 9.00437 1.74608C7.97843 2.86408 7.40207 4.38041 7.40207 5.9615V7.1538H4.98406C4.17617 7.15371 3.39663 7.4783 2.79465 8.06544C2.19267 8.65259 1.81053 9.46104 1.7214 10.336L0.0200402 27.0282C-0.030893 27.5282 0.0155259 28.0343 0.156265 28.5134C0.297005 28.9925 0.528899 29.4339 0.836805 29.8087C1.14471 30.1835 1.5217 30.4833 1.94316 30.6885C2.36463 30.8938 2.82107 30.9998 3.28271 30.9998H16.155C16.4452 30.9998 16.7235 30.8742 16.9287 30.6506C17.1339 30.427 17.2491 30.1237 17.2491 29.8075C17.2491 29.4913 17.1339 29.188 16.9287 28.9644C16.7235 28.7408 16.4452 28.6152 16.155 28.6152H3.28271C3.12886 28.6152 2.97675 28.5799 2.83629 28.5115C2.69583 28.4431 2.57018 28.3432 2.46755 28.2183C2.36492 28.0934 2.28762 27.9463 2.24068 27.7867C2.19374 27.627 2.17823 27.4584 2.19515 27.2917L3.89651 10.5995C3.92614 10.3078 4.05348 10.0382 4.25415 9.84243C4.45482 9.64663 4.71471 9.53838 4.98406 9.5384H7.40207V11.923C7.40207 12.2392 7.51734 12.5425 7.72253 12.7661C7.92771 12.9897 8.20601 13.1153 8.49619 13.1153C8.78636 13.1153 9.06466 12.9897 9.26985 12.7661C9.47503 12.5425 9.59031 12.2392 9.59031 11.923V9.5384H16.155V11.923C16.155 12.2392 16.2703 12.5425 16.4755 12.7661C16.6807 12.9897 16.959 13.1153 17.2491 13.1153C17.5393 13.1153 17.8176 12.9897 18.0228 12.7661C18.228 12.5425 18.3433 12.2392 18.3433 11.923V9.5384H20.7613C21.0306 9.53838 21.2905 9.64663 21.4912 9.84243C21.6919 10.0382 21.8192 10.3078 21.8488 10.5995L22.7263 19.2079C22.7582 19.5223 22.9034 19.8099 23.1299 20.0076C23.3565 20.2052 23.6458 20.2967 23.9342 20.2619C24.2227 20.2272 24.4866 20.0689 24.668 19.8221C24.8494 19.5752 24.9333 19.26 24.9014 18.9456L24.0239 10.336C23.9348 9.46104 23.5527 8.65259 22.9507 8.06544C22.3487 7.4783 21.5692 7.15371 20.7613 7.1538H18.3433V5.9615C18.3433 4.38041 17.7669 2.86408 16.741 1.74608C15.715 0.628085 14.3236 0 12.8727 0ZM16.155 7.1538V5.9615C16.155 5.01285 15.8092 4.10305 15.1936 3.43225C14.5781 2.76145 13.7432 2.3846 12.8727 2.3846C12.0021 2.3846 11.1672 2.76145 10.5517 3.43225C9.93612 4.10305 9.59031 5.01285 9.59031 5.9615V7.1538H16.155Z" fill="#304BA0"/>
<path fill-rule="evenodd" clip-rule="evenodd" d="M22.7128 22.654C22.7128 22.3378 22.5975 22.0345 22.3923 21.8109C22.1871 21.5873 21.9088 21.4617 21.6187 21.4617C21.3285 21.4617 21.0502 21.5873 20.845 21.8109C20.6398 22.0345 20.5245 22.3378 20.5245 22.654V25.0386H18.3363C18.0461 25.0386 17.7678 25.1642 17.5626 25.3878C17.3575 25.6114 17.2422 25.9146 17.2422 26.2309C17.2422 26.5471 17.3575 26.8504 17.5626 27.074C17.7678 27.2976 18.0461 27.4232 18.3363 27.4232H20.5245V29.8078C20.5245 30.124 20.6398 30.4272 20.845 30.6508C21.0502 30.8744 21.3285 31.0001 21.6187 31.0001C21.9088 31.0001 22.1871 30.8744 22.3923 30.6508C22.5975 30.4272 22.7128 30.124 22.7128 29.8078V27.4232H24.901C25.1912 27.4232 25.4695 27.2976 25.6747 27.074C25.8799 26.8504 25.9951 26.5471 25.9951 26.2309C25.9951 25.9146 25.8799 25.6114 25.6747 25.3878C25.4695 25.1642 25.1912 25.0386 24.901 25.0386H22.7128V22.654Z" fill="#304BA0"/>
</svg>
