<svg width="16" height="16" viewBox="0 0 16 16" fill="none" xmlns="http://www.w3.org/2000/svg">
<mask id="mask0_1217_3883" style="mask-type:alpha" maskUnits="userSpaceOnUse" x="0" y="0" width="16" height="16">
<rect width="16" height="16" fill="#D9D9D9"/>
</mask>
<g mask="url(#mask0_1217_3883)">
<path d="M8.33333 13.4431L7.5975 12.782C6.49239 11.7802 5.5785 10.9193 4.85583 10.1994C4.13317 9.47931 3.5605 8.83849 3.13783 8.27689C2.71517 7.7154 2.41989 7.20315 2.252 6.74014C2.084 6.27725 2 5.80753 2 5.33097C2 4.38553 2.319 3.59398 2.957 2.95632C3.59511 2.31877 4.38722 2 5.33333 2C5.91533 2 6.46533 2.13601 6.98333 2.40804C7.50133 2.68007 7.95133 3.07019 8.33333 3.57838C8.71533 3.07019 9.16533 2.68007 9.68333 2.40804C10.2013 2.13601 10.7513 2 11.3333 2C12.2794 2 13.0716 2.31877 13.7097 2.95632C14.3477 3.59398 14.6667 4.38553 14.6667 5.33097C14.6667 5.80753 14.5827 6.27725 14.4147 6.74014C14.2468 7.20315 13.9515 7.7154 13.5288 8.27689C13.1062 8.83849 12.5346 9.47931 11.814 10.1994C11.0936 10.9193 10.1786 11.7802 9.06917 12.782L8.33333 13.4431ZM8.33333 12.0929C9.4 11.1338 10.2778 10.3117 10.9667 9.6266C11.6556 8.94164 12.2 8.34656 12.6 7.84136C13 7.33617 13.2778 6.88754 13.4333 6.49548C13.5889 6.10354 13.6667 5.71537 13.6667 5.33097C13.6667 4.66478 13.4444 4.10962 13 3.66549C12.5556 3.22136 12 2.99929 11.3333 2.99929C10.8069 2.99929 10.3203 3.14852 9.87367 3.44698C9.42711 3.74554 9.0735 4.16086 8.81283 4.69293H7.85383C7.58883 4.15653 7.23411 3.74016 6.78967 3.44381C6.34522 3.14747 5.85978 2.99929 5.33333 2.99929C4.67089 2.99929 4.11639 3.22136 3.66983 3.66549C3.22328 4.10962 3 4.66478 3 5.33097C3 5.71537 3.07778 6.10354 3.23333 6.49548C3.38889 6.88754 3.66667 7.33617 4.06667 7.84136C4.46667 8.34656 5.01111 8.94059 5.7 9.62343C6.38889 10.3063 7.26667 11.1294 8.33333 12.0929Z" fill="black"/>
</g>
</svg>
