<svg width="26" height="24" viewBox="0 0 26 24" fill="none" xmlns="http://www.w3.org/2000/svg">
<mask id="mask0_1422_4713" style="mask-type:alpha" maskUnits="userSpaceOnUse" x="0" y="0" width="26" height="24">
<path d="M0 0H17.5306C21.9489 0 25.5306 3.58172 25.5306 8V24H0V0Z" fill="#D9D9D9"/>
</mask>
<g mask="url(#mask0_1422_4713)">
<path d="M11.9667 20.75V18.75H9.83913V17.25H11.9667V14.6885C10.5864 14.5 9.44358 13.9125 8.53813 12.926C7.6325 11.9395 7.17969 10.7873 7.17969 9.46925C7.17969 8.01675 7.72416 6.78375 8.81312 5.77025C9.90224 4.75675 11.2194 4.25 12.7645 4.25C14.3096 4.25 15.6268 4.75675 16.7159 5.77025C17.8049 6.78375 18.3493 8.01675 18.3493 9.46925C18.3493 10.7873 17.8965 11.9395 16.9909 12.926C16.0854 13.9125 14.9426 14.5 13.5623 14.6885V17.25H15.6899V18.75H13.5623V20.75H11.9667ZM12.7661 13.25C13.8684 13.25 14.8086 12.8837 15.5867 12.1512C16.3647 11.4189 16.7537 10.5347 16.7537 9.4985C16.7537 8.46233 16.3641 7.5785 15.5848 6.847C14.8058 6.11567 13.8652 5.75 12.7629 5.75C11.6607 5.75 10.7205 6.11625 9.94231 6.84875C9.16434 7.58108 8.77535 8.46533 8.77535 9.5015C8.77535 10.5377 9.16496 11.4215 9.94417 12.153C10.7232 12.8843 11.6639 13.25 12.7661 13.25Z" fill="#1C1B1F"/>
</g>
</svg>
