<svg width="56" height="57" viewBox="0 0 56 57" fill="none" xmlns="http://www.w3.org/2000/svg">
<circle cx="28" cy="28.5" r="28" fill="#304BA0"/>
<mask id="mask0_1018_999" style="mask-type:alpha" maskUnits="userSpaceOnUse" x="15" y="14" width="29" height="29">
<rect x="15.168" y="14.5" width="28" height="28" fill="#E6E6E6"/>
</mask>
<g mask="url(#mask0_1018_999)">
<path d="M28.136 41.5808H38.8307C39.5414 41.5808 40.1422 41.3337 40.639 40.8378C41.1358 40.342 41.3833 39.7424 41.3833 39.0333V37.1211V37.0593L41.4387 37.0317C41.867 36.8179 42.2101 36.5283 42.4702 36.1631C42.7291 35.7985 42.857 35.4077 42.857 34.9884V31.6054C42.857 31.1604 42.7284 30.7575 42.4703 30.3939C42.2102 30.0286 41.867 29.7391 41.4387 29.5253L41.3857 29.4989L41.3834 29.4397L41.3098 27.5292C41.1877 25.8509 40.7677 24.3139 40.0504 22.917C39.3305 21.5181 38.4162 20.3143 37.3074 19.3049C36.1997 18.2966 34.9272 17.5126 33.4892 16.9531C32.0519 16.3939 30.5415 16.1142 28.957 16.1142C27.3726 16.1142 25.8681 16.3939 24.4428 16.953C23.0175 17.5125 21.7447 18.2966 20.6239 19.3053C19.5037 20.3145 18.5841 21.5244 17.8653 22.9359L17.8653 22.9359C17.1469 24.3446 16.7263 25.8877 16.6043 27.566L16.5306 29.4765L16.5286 29.5301L16.4828 29.558C16.0523 29.8206 15.7071 30.1475 15.4455 30.5386L28.136 41.5808ZM28.136 41.5808V39.5745H38.8307C38.9795 39.5745 39.1094 39.5217 39.2149 39.4177L39.2157 39.4169C39.3199 39.3117 39.3728 39.1819 39.3728 39.0333V28.4062C39.3728 26.9714 39.1001 25.6218 38.5541 24.3584C38.0089 23.097 37.265 21.9954 36.3224 21.0547C35.3798 20.1139 34.2762 19.3714 33.0124 18.8273C31.7467 18.2823 30.3946 18.0101 28.957 18.0101C27.5195 18.0101 26.1674 18.2823 24.9017 18.8273C23.6379 19.3714 22.5342 20.1139 21.5917 21.0547C20.6491 21.9954 19.9052 23.097 19.36 24.3584C18.814 25.6218 18.5412 26.9714 18.5412 28.4062V37.2418H17.536C16.8501 37.2418 16.2679 37.0012 15.7837 36.5179C15.2984 36.0336 15.057 35.4521 15.057 34.7677V31.826C15.057 31.3554 15.1863 30.9271 15.4454 30.5387L28.136 41.5808ZM25.6621 31.0373L25.6618 31.0376C25.4219 31.2779 25.1463 31.3951 24.8307 31.3951C24.4885 31.3951 24.2006 31.2764 23.9611 31.0374C23.7213 30.798 23.6044 30.523 23.6044 30.208C23.6044 29.8666 23.7228 29.5793 23.9612 29.3404C24.2006 29.1024 24.4885 28.9843 24.8307 28.9843C25.1464 28.9843 25.4221 29.101 25.662 29.3404C25.9014 29.5794 26.0202 29.8667 26.0202 30.208C26.0202 30.5229 25.9029 30.7979 25.6621 31.0373ZM32.2522 31.0376L32.252 31.0373C32.0112 30.7979 31.8939 30.5229 31.8939 30.208C31.8939 29.8667 32.0127 29.5794 32.2521 29.3404C32.492 29.101 32.7676 28.9843 33.0833 28.9843C33.4256 28.9843 33.7136 29.1025 33.953 29.3405C34.1913 29.5794 34.3097 29.8666 34.3097 30.208C34.3097 30.523 34.1928 30.798 33.9529 31.0374C33.7135 31.2764 33.4256 31.3951 33.0833 31.3951C32.7677 31.3951 32.4921 31.2779 32.2522 31.0376ZM20.7583 28.9601C20.6834 27.6798 20.8751 26.5103 21.3312 25.4496L21.3313 25.4495C21.805 24.3447 22.4358 23.4117 23.2232 22.6491C24.0126 21.8863 24.9169 21.2991 25.9366 20.8872C26.9569 20.475 27.9881 20.2694 29.0307 20.2694C31.1201 20.2694 32.9201 20.9233 34.4357 22.2308L34.4357 22.2308C35.9231 23.513 36.8321 25.1074 37.1649 27.0173C35.0689 26.9732 33.1623 26.3966 31.4428 25.2878L31.4428 25.2878C29.689 24.1578 28.3754 22.6947 27.4996 20.8978L27.3719 20.6359L27.3118 20.9209C26.9221 22.7685 26.1372 24.4085 24.9569 25.8422C23.8054 27.2397 22.4062 28.2787 20.7583 28.9601Z" fill="white" stroke="#F5F5F5" stroke-width="0.2"/>
</g>
</svg>
