<svg width="56" height="57" viewBox="0 0 56 57" fill="none" xmlns="http://www.w3.org/2000/svg">
<circle cx="28" cy="28.5" r="28" fill="#304BA0"/>
<g clip-path="url(#clip0_1018_986)">
<path d="M36.3575 36.9051C34.6677 38.5949 32.5378 39.7208 30.1979 40.1611C29.4661 40.2988 28.7287 40.3672 27.9944 40.3672C26.8346 40.3672 25.6821 40.1963 24.5694 39.8585L25.2682 41.0116C25.456 41.3215 25.357 41.7251 25.0471 41.9129C24.9408 41.9773 24.8234 42.008 24.7076 42.008C24.4856 42.008 24.2691 41.8954 24.1457 41.6918L22.4332 38.866C22.2587 38.5779 22.3305 38.2045 22.5995 38.0018L25.066 36.1427C25.3554 35.9246 25.7669 35.9823 25.9851 36.2717C26.2032 36.5612 26.1455 36.9726 25.8561 37.1908L24.2847 38.3752C25.4999 38.8354 26.762 39.0605 28.0123 39.0605C30.7403 39.0608 33.4132 37.9932 35.4294 35.977C38.6383 32.7681 39.4269 27.8892 37.3918 23.8365C37.2292 23.5126 37.36 23.1182 37.6838 22.9556C38.0077 22.7929 38.4021 22.9237 38.5648 23.2476C40.8542 27.8069 39.9671 33.2955 36.3575 36.9051ZM31.6398 18.6936L30.0721 19.7317C29.7699 19.9318 29.6872 20.3389 29.8873 20.6411C30.0136 20.8318 30.2222 20.9352 30.4351 20.9351C30.5595 20.9351 30.6853 20.8998 30.7968 20.826L33.372 19.1207C33.6528 18.9347 33.7472 18.5663 33.5906 18.2682L32.0535 15.3433C31.8849 15.0225 31.4881 14.899 31.1672 15.0677C30.8464 15.2363 30.723 15.6331 30.8916 15.9539L31.594 17.2905C29.7488 16.7015 27.7884 16.5749 25.8611 16.9281C23.4994 17.361 21.3505 18.4904 19.6466 20.1943C16.037 23.8039 15.1499 29.2925 17.4393 33.8518C17.5545 34.0812 17.786 34.2137 18.0263 34.2137C18.1253 34.2137 18.2258 34.1912 18.3202 34.1437C18.6441 33.9811 18.7748 33.5867 18.6122 33.2628C16.5772 29.2101 17.3658 24.3312 20.5746 21.1224C23.5025 18.1946 27.7923 17.2696 31.6398 18.6936Z" fill="white"/>
</g>
<defs>
<clipPath id="clip0_1018_986">
<rect width="28" height="28" fill="white" transform="translate(14 14.5)"/>
</clipPath>
</defs>
</svg>
