<svg width="56" height="57" viewBox="0 0 56 57" fill="none" xmlns="http://www.w3.org/2000/svg">
<circle cx="28" cy="28.5" r="28" fill="#304BA0"/>
<mask id="mask0_1018_992" style="mask-type:alpha" maskUnits="userSpaceOnUse" x="14" y="14" width="28" height="29">
<rect x="14" y="14.5" width="28" height="28" fill="#E6E6E6"/>
</mask>
<g mask="url(#mask0_1018_992)">
<path d="M15.8718 32.6001V32.5001V21.3993C15.8718 21.2786 15.9362 21.1714 16.0347 21.0785C16.1338 20.985 16.2448 20.9272 16.3662 20.9272H32.3052H32.4052V21.0272V32.5001V32.6001H32.3052H22.9061H22.8494L22.8203 32.5515C22.5455 32.0926 22.1484 31.7166 21.6257 31.424L15.8718 32.6001ZM15.8718 32.6001H15.9718M15.8718 32.6001H15.9718M15.9718 32.6001H16.9249H16.9802M15.9718 32.6001H16.9802M16.9802 32.6001L17.0096 32.5532M16.9802 32.6001L17.0096 32.5532M17.0096 32.5532C17.2848 32.1137 17.6777 31.742 18.1916 31.4389M17.0096 32.5532L18.1916 31.4389M18.1916 31.4389C18.7009 31.1386 19.2747 30.9877 19.9155 30.9877M18.1916 31.4389L19.9155 30.9877M19.9155 30.9877C20.5343 30.9877 21.1037 31.1332 21.6255 31.4239L19.9155 30.9877ZM23.4962 34.3605C23.4962 35.3043 23.152 36.1 22.4602 36.7535C21.7673 37.4065 20.9212 37.7334 19.9155 37.7334C18.9098 37.7334 18.0637 37.4065 17.3708 36.7536C16.679 36.1001 16.3347 35.3044 16.3347 34.3605V34.2605H16.2347H14.1V21.3993C14.1 20.8073 14.3182 20.3063 14.7588 19.8906C15.1995 19.4748 15.7333 19.2667 16.3662 19.2667H34.177V23.8799V23.9799H34.277H37.7121L41.9 29.279V34.2605H39.6338H39.5338V34.3605C39.5338 35.3038 39.1842 36.0994 38.4812 36.753C37.7776 37.4065 36.9259 37.7334 35.9202 37.7334C34.937 37.7334 34.0961 37.4069 33.392 36.753C32.689 36.0994 32.3394 35.3038 32.3394 34.3605V34.2605H32.2394H23.5962H23.4962V34.3605ZM34.177 30.0195V30.1195H34.277H40.1596H40.3675L40.2378 29.9571L36.8199 25.678L36.7899 25.6404H36.7418H34.277H34.177V25.7404V30.0195ZM19.9155 36.0729C20.4211 36.0729 20.8516 35.9094 21.2001 35.5806C21.5489 35.2515 21.7244 34.8427 21.7244 34.3605C21.7244 33.8784 21.5489 33.4696 21.2001 33.1405C20.8516 32.8117 20.4211 32.6481 19.9155 32.6481C19.4098 32.6481 18.9794 32.8117 18.6309 33.1405C18.2821 33.4696 18.1066 33.8784 18.1066 34.3605C18.1066 34.8427 18.2821 35.2515 18.6309 35.5806C18.9794 35.9094 19.4098 36.0729 19.9155 36.0729ZM35.9531 36.0729C36.4587 36.0729 36.8891 35.9094 37.2376 35.5806C37.5865 35.2515 37.762 34.8427 37.762 34.3605C37.762 33.8784 37.5865 33.4696 37.2376 33.1405C36.8891 32.8117 36.4587 32.6481 35.9531 32.6481C35.4474 32.6481 35.0124 32.8116 34.6538 33.1395C34.2934 33.4682 34.1113 33.8773 34.1113 34.3605C34.1113 34.8438 34.2934 35.253 34.6539 35.5817C35.0125 35.9095 35.4475 36.0729 35.9531 36.0729Z" fill="white" stroke="#F5F5F5" stroke-width="0.2"/>
</g>
</svg>
