<svg width="56" height="56" viewBox="0 0 56 56" fill="none" xmlns="http://www.w3.org/2000/svg">
<circle cx="28" cy="28" r="28" fill="#304BA0"/>
<mask id="mask0_2038_712" style="mask-type:alpha" maskUnits="userSpaceOnUse" x="15" y="14" width="29" height="28">
<rect x="15.168" y="14" width="28" height="28" fill="#E6E6E6"/>
</mask>
<g mask="url(#mask0_2038_712)">
<path d="M28.136 41.0808H38.8307C39.5414 41.0808 40.1422 40.8337 40.639 40.3378C41.1358 39.842 41.3833 39.2424 41.3833 38.5333V36.6211V36.5593L41.4387 36.5317C41.867 36.3179 42.2101 36.0283 42.4702 35.6631C42.7291 35.2985 42.857 34.9077 42.857 34.4884V31.1054C42.857 30.6604 42.7284 30.2575 42.4703 29.8939C42.2102 29.5286 41.867 29.2391 41.4387 29.0253L41.3857 28.9989L41.3834 28.9397L41.3098 27.0292C41.1877 25.3509 40.7677 23.8139 40.0504 22.417C39.3305 21.0181 38.4162 19.8143 37.3074 18.8049C36.1997 17.7966 34.9272 17.0126 33.4892 16.4531C32.0519 15.8939 30.5415 15.6142 28.957 15.6142C27.3726 15.6142 25.8681 15.8939 24.4428 16.453C23.0175 17.0125 21.7447 17.7966 20.6239 18.8053C19.5037 19.8145 18.5841 21.0244 17.8653 22.4359L17.8653 22.4359C17.1469 23.8446 16.7263 25.3877 16.6043 27.066L16.5306 28.9765L16.5286 29.0301L16.4828 29.058C16.0523 29.3206 15.7071 29.6475 15.4455 30.0386L28.136 41.0808ZM28.136 41.0808V39.0745H38.8307C38.9795 39.0745 39.1094 39.0217 39.2149 38.9177L39.2157 38.9169C39.3199 38.8117 39.3728 38.6819 39.3728 38.5333V27.9062C39.3728 26.4714 39.1001 25.1218 38.5541 23.8584C38.0089 22.597 37.265 21.4954 36.3224 20.5547C35.3798 19.6139 34.2762 18.8714 33.0124 18.3273C31.7467 17.7823 30.3946 17.5101 28.957 17.5101C27.5195 17.5101 26.1674 17.7823 24.9017 18.3273C23.6379 18.8714 22.5342 19.6139 21.5917 20.5547C20.6491 21.4954 19.9052 22.597 19.36 23.8584C18.814 25.1218 18.5412 26.4714 18.5412 27.9062V36.7418H17.536C16.8501 36.7418 16.2679 36.5012 15.7837 36.0179C15.2984 35.5336 15.057 34.9521 15.057 34.2677V31.326C15.057 30.8554 15.1863 30.4271 15.4454 30.0387L28.136 41.0808ZM25.6621 30.5373L25.6618 30.5376C25.4219 30.7779 25.1463 30.8951 24.8307 30.8951C24.4885 30.8951 24.2006 30.7764 23.9611 30.5374C23.7213 30.298 23.6044 30.023 23.6044 29.708C23.6044 29.3666 23.7228 29.0793 23.9612 28.8404C24.2006 28.6024 24.4885 28.4843 24.8307 28.4843C25.1464 28.4843 25.4221 28.601 25.662 28.8404C25.9014 29.0794 26.0202 29.3667 26.0202 29.708C26.0202 30.0229 25.9029 30.2979 25.6621 30.5373ZM32.2522 30.5376L32.252 30.5373C32.0112 30.2979 31.8939 30.0229 31.8939 29.708C31.8939 29.3667 32.0127 29.0794 32.2521 28.8404C32.492 28.601 32.7676 28.4843 33.0833 28.4843C33.4256 28.4843 33.7136 28.6025 33.953 28.8405C34.1913 29.0794 34.3097 29.3666 34.3097 29.708C34.3097 30.023 34.1928 30.298 33.9529 30.5374C33.7135 30.7764 33.4256 30.8951 33.0833 30.8951C32.7677 30.8951 32.4921 30.7779 32.2522 30.5376ZM20.7583 28.4601C20.6834 27.1798 20.8751 26.0103 21.3312 24.9496L21.3313 24.9495C21.805 23.8447 22.4358 22.9117 23.2232 22.1491C24.0126 21.3863 24.9169 20.7991 25.9366 20.3872C26.9569 19.975 27.9881 19.7694 29.0307 19.7694C31.1201 19.7694 32.9201 20.4233 34.4357 21.7308L34.4357 21.7308C35.9231 23.013 36.8321 24.6074 37.1649 26.5173C35.0689 26.4732 33.1623 25.8966 31.4428 24.7878L31.4428 24.7878C29.689 23.6578 28.3754 22.1947 27.4996 20.3978L27.3719 20.1359L27.3118 20.4209C26.9221 22.2685 26.1372 23.9085 24.9569 25.3422C23.8054 26.7397 22.4062 27.7787 20.7583 28.4601Z" fill="white" stroke="#F5F5F5" stroke-width="0.2"/>
</g>
</svg>
