<svg width="25" height="24" viewBox="0 0 25 24" fill="none" xmlns="http://www.w3.org/2000/svg">
<mask id="mask0_1422_4705" style="mask-type:alpha" maskUnits="userSpaceOnUse" x="0" y="0" width="25" height="24">
<path d="M0 8C0 3.58172 3.58172 0 8 0H24.8337V24H0V8Z" fill="#D9D9D9"/>
</mask>
<g mask="url(#mask0_1422_4705)">
<path d="M20.4369 4.25V9.75H18.8848V6.82875L14.1747 11.3463C14.509 11.8193 14.774 12.3203 14.9696 12.8495C15.1653 13.3787 15.2632 13.9288 15.2632 14.5C15.2632 15.9637 14.7365 17.2046 13.6832 18.2228C12.6298 19.2409 11.3459 19.75 9.8316 19.75C8.31743 19.75 7.0334 19.241 5.97952 18.223C4.92546 17.205 4.39844 15.9643 4.39844 14.5008C4.39844 13.0374 4.92521 11.7965 5.97874 10.778C7.03228 9.75933 8.31631 9.25 9.83082 9.25C10.4132 9.25 10.9787 9.342 11.5273 9.526C12.0757 9.71 12.5893 9.96867 13.0683 10.302L17.7784 5.75H14.7458V4.25H20.4369ZM9.82927 10.75C8.75711 10.75 7.84257 11.1163 7.08566 11.8488C6.32892 12.5811 5.95055 13.4653 5.95055 14.5015C5.95055 15.5377 6.32952 16.4215 7.08747 17.153C7.84524 17.8843 8.76021 18.25 9.83237 18.25C10.9045 18.25 11.8191 17.8837 12.576 17.1512C13.3327 16.4189 13.7111 15.5347 13.7111 14.4985C13.7111 13.4623 13.3321 12.5785 12.5742 11.847C11.8164 11.1157 10.9014 10.75 9.82927 10.75Z" fill="#1C1B1F"/>
</g>
</svg>
