<svg width="35" height="29" viewBox="0 0 35 29" fill="none" xmlns="http://www.w3.org/2000/svg">
<path d="M31.8483 2.86928C27.9266 -0.952064 21.5381 -0.95775 17.6094 2.86018L17.4004 3.06376L17.1915 2.86018C13.2616 -0.956613 6.87541 -0.952064 2.94561 2.8761C-0.981869 6.702 -0.981869 12.9287 2.94561 16.7569L14.1805 27.7012C15.0398 28.5394 16.1839 29 17.4004 29C18.617 29 19.76 28.5394 20.6204 27.7012L31.8553 16.7569C35.7827 12.9287 35.7827 6.702 31.8483 2.86928ZM30.3679 15.3091L19.133 26.2534C18.2072 27.1553 16.5925 27.1553 15.6667 26.2534L4.43183 15.3091C1.32278 12.2793 1.32278 7.3514 4.43884 4.31707C5.17877 3.59559 6.05774 3.02364 7.02526 2.63407C7.99279 2.2445 9.02979 2.045 10.0767 2.04701C12.1152 2.04701 14.1536 2.80104 15.7064 4.31025L16.2808 4.86866C16.5785 5.15564 16.9804 5.31661 17.3993 5.31661C17.8181 5.31661 18.22 5.15564 18.5177 4.86866L18.5189 4.86753L19.0921 4.31025C22.2 1.28956 27.2565 1.29411 30.3667 4.32389C33.4781 7.3514 33.4781 12.2793 30.3679 15.3091Z" fill="#304BA0"/>
<path d="M28.9544 5.68422C27.9995 4.74546 26.7422 4.15517 25.3935 4.01238C25.1165 3.98237 24.8387 4.06077 24.621 4.23033C24.4034 4.39989 24.2638 4.64673 24.233 4.91654C24.2022 5.18635 24.2827 5.45703 24.4567 5.66904C24.6308 5.88104 24.8842 6.01701 25.1612 6.04702C26.0403 6.14255 26.8389 6.51786 27.5102 7.17182C28.122 7.78482 28.4956 8.55364 28.5901 9.39638C28.605 9.53006 28.6467 9.65956 28.713 9.77751C28.7793 9.89547 28.8687 9.99955 28.9762 10.0838C29.0838 10.1681 29.2073 10.2309 29.3398 10.2687C29.4723 10.3065 29.6111 10.3184 29.7483 10.304C29.8855 10.2895 30.0184 10.2488 30.1395 10.1843C30.2606 10.1197 30.3675 10.0326 30.454 9.92781C30.5405 9.82305 30.605 9.70271 30.6437 9.57367C30.6825 9.44463 30.6948 9.30942 30.6799 9.17575C30.534 7.87467 29.9596 6.68846 28.9544 5.68422Z" fill="#304BA0"/>
</svg>
