<svg width="29" height="29" viewBox="0 0 29 29" fill="none" xmlns="http://www.w3.org/2000/svg">
<path d="M3.4028 28.66H25.5931C25.7435 28.66 25.8916 28.6234 26.0247 28.5534C26.1578 28.4833 26.2718 28.3819 26.3569 28.2578C26.442 28.1338 26.4957 27.9909 26.5132 27.8416C26.5307 27.6922 26.5115 27.5408 26.4574 27.4004L23.1173 18.7349C23.05 18.5603 22.9314 18.4102 22.7771 18.3043C22.6229 18.1984 22.4401 18.1417 22.253 18.1417H20.7814C20.2698 18.1417 19.855 18.5566 19.855 19.0681C19.855 19.5796 20.2698 19.9944 20.7814 19.9944H21.6173L24.2432 26.8072H4.75272L7.3788 19.9944H8.21471C8.72634 19.9944 9.14106 19.5796 9.14106 19.0681C9.14106 18.5566 8.72634 18.1417 8.21471 18.1417H6.74312C6.55599 18.1417 6.37325 18.1984 6.21896 18.3043C6.06467 18.4102 5.94607 18.5603 5.87879 18.7349L2.53852 27.4005C2.48445 27.5408 2.46535 27.6922 2.48287 27.8416C2.5004 27.9909 2.55402 28.1338 2.63911 28.2578C2.7242 28.3818 2.83819 28.4832 2.97125 28.5533C3.1043 28.6233 3.25242 28.66 3.4028 28.66Z" fill="#304BA0"/>
<path d="M14.4962 0.339844C9.39349 0.339844 5.24219 4.49115 5.24219 9.5939C5.24219 14.4596 12.9856 21.7343 13.8686 22.5477C14.0395 22.7055 14.2636 22.793 14.4962 22.7927C14.7214 22.7927 14.9466 22.7111 15.1239 22.5477C16.0068 21.7343 23.7504 14.4596 23.7504 9.5939C23.7504 4.49115 19.599 0.339844 14.4962 0.339844ZM14.4961 20.5898C12.1825 18.3419 7.0949 12.8225 7.0949 9.5939C7.0949 5.51289 10.4151 2.19256 14.4962 2.19256C18.5774 2.19256 21.8977 5.51289 21.8977 9.5939C21.8977 12.7458 16.7482 18.4005 14.4961 20.5898Z" fill="#304BA0"/>
<path d="M14.5008 12.6191C16.4054 12.6191 17.9549 11.0696 17.9549 9.16516C17.9549 7.26051 16.4054 5.71094 14.5008 5.71094C12.5963 5.71094 11.0469 7.26045 11.0469 9.16516C11.0469 11.0696 12.5963 12.6191 14.5008 12.6191ZM14.5008 7.56371C15.3837 7.56371 16.1022 8.28225 16.1022 9.16522C16.1022 10.0482 15.3837 10.7665 14.5008 10.7665C13.6179 10.7665 12.8996 10.0481 12.8996 9.16522C12.8996 8.28231 13.6179 7.56371 14.5008 7.56371Z" fill="#304BA0"/>
</svg>
