<svg width="48" height="48" viewBox="0 0 48 48" fill="none" xmlns="http://www.w3.org/2000/svg">
<circle cx="24" cy="24" r="23.5" fill="white" stroke="#ECECEC"/>
<mask id="mask0_1022_2105" style="mask-type:alpha" maskUnits="userSpaceOnUse" x="12" y="12" width="24" height="24">
<rect x="12" y="12" width="24" height="24" fill="#D9D9D9"/>
</mask>
<g mask="url(#mask0_1022_2105)">
<path d="M30.0013 33.75C29.2376 33.75 28.5882 33.4827 28.053 32.948C27.5177 32.4132 27.25 31.7638 27.25 31C27.25 30.8752 27.2599 30.7459 27.2797 30.6122C27.2998 30.4784 27.3296 30.3551 27.3693 30.2423L19.973 25.9115C19.709 26.1743 19.4084 26.3798 19.0713 26.5278C18.7341 26.6759 18.377 26.75 18 26.75C17.2362 26.75 16.5868 26.4827 16.052 25.9482C15.5173 25.4137 15.25 24.7648 15.25 24.0013C15.25 23.2376 15.5173 22.5882 16.052 22.053C16.5868 21.5177 17.2362 21.25 18 21.25C18.377 21.25 18.7341 21.3241 19.0713 21.4723C19.4084 21.6203 19.709 21.8257 19.973 22.0885L27.3693 17.7578C27.3296 17.6449 27.2998 17.5216 27.2797 17.3878C27.2599 17.2541 27.25 17.1248 27.25 17C27.25 16.2362 27.5173 15.5868 28.0518 15.052C28.5863 14.5173 29.2353 14.25 29.9988 14.25C30.7624 14.25 31.4118 14.5173 31.947 15.0518C32.4823 15.5863 32.75 16.2353 32.75 16.9988C32.75 17.7624 32.4827 18.4118 31.948 18.947C31.4132 19.4823 30.7638 19.75 30 19.75C29.623 19.75 29.2659 19.6759 28.9288 19.5277C28.5916 19.3797 28.291 19.1743 28.027 18.9115L20.6308 23.2423C20.6704 23.3551 20.7003 23.4782 20.7203 23.6115C20.7401 23.7448 20.75 23.8737 20.75 23.998C20.75 24.1223 20.7401 24.2518 20.7203 24.3865C20.7003 24.5212 20.6704 24.6449 20.6308 24.7578L28.027 29.0885C28.291 28.8257 28.5916 28.6203 28.9288 28.4723C29.2659 28.3241 29.623 28.25 30 28.25C30.7638 28.25 31.4132 28.5173 31.948 29.0518C32.4827 29.5863 32.75 30.2353 32.75 30.9988C32.75 31.7624 32.4827 32.4118 31.9482 32.947C31.4137 33.4823 30.7648 33.75 30.0013 33.75ZM30 18.25C30.3475 18.25 30.6427 18.1285 30.8855 17.8855C31.1285 17.6427 31.25 17.3475 31.25 17C31.25 16.6525 31.1285 16.3573 30.8855 16.1145C30.6427 15.8715 30.3475 15.75 30 15.75C29.6525 15.75 29.3573 15.8715 29.1145 16.1145C28.8715 16.3573 28.75 16.6525 28.75 17C28.75 17.3475 28.8715 17.6427 29.1145 17.8855C29.3573 18.1285 29.6525 18.25 30 18.25ZM18 25.25C18.3475 25.25 18.6427 25.1285 18.8855 24.8855C19.1285 24.6427 19.25 24.3475 19.25 24C19.25 23.6525 19.1285 23.3573 18.8855 23.1145C18.6427 22.8715 18.3475 22.75 18 22.75C17.6525 22.75 17.3573 22.8715 17.1145 23.1145C16.8715 23.3573 16.75 23.6525 16.75 24C16.75 24.3475 16.8715 24.6427 17.1145 24.8855C17.3573 25.1285 17.6525 25.25 18 25.25ZM30 32.25C30.3475 32.25 30.6427 32.1285 30.8855 31.8855C31.1285 31.6427 31.25 31.3475 31.25 31C31.25 30.6525 31.1285 30.3573 30.8855 30.1145C30.6427 29.8715 30.3475 29.75 30 29.75C29.6525 29.75 29.3573 29.8715 29.1145 30.1145C28.8715 30.3573 28.75 30.6525 28.75 31C28.75 31.3475 28.8715 31.6427 29.1145 31.8855C29.3573 32.1285 29.6525 32.25 30 32.25Z" fill="#1C1B1F"/>
</g>
</svg>
