<svg width="16" height="16" viewBox="0 0 16 16" fill="none" xmlns="http://www.w3.org/2000/svg">
<mask id="mask0_1217_3893" style="mask-type:alpha" maskUnits="userSpaceOnUse" x="0" y="0" width="16" height="16">
<rect width="16" height="16" fill="#D9D9D9"/>
</mask>
<g mask="url(#mask0_1217_3893)">
<path d="M3.85655 13.6667C3.58644 13.6667 3.34432 13.5857 3.13021 13.4237C2.9161 13.2617 2.77099 13.0491 2.69488 12.7858L1.11038 7.1C1.05905 6.91022 1.09194 6.735 1.20905 6.57433C1.32616 6.41366 1.48516 6.33333 1.68605 6.33333H4.83338L7.49755 2.345C7.5531 2.26033 7.62444 2.1945 7.71155 2.1475C7.79877 2.1005 7.89366 2.077 7.99621 2.077C8.09877 2.077 8.19366 2.10155 8.28088 2.15066C8.36799 2.19977 8.43932 2.26666 8.49488 2.35133L11.1462 6.33333H14.314C14.5149 6.33333 14.675 6.41366 14.7942 6.57433C14.9134 6.735 14.9453 6.91022 14.8897 7.1L13.2924 12.7858C13.2163 13.0491 13.0712 13.2617 12.857 13.4237C12.6429 13.5857 12.4009 13.6667 12.1309 13.6667H3.85655ZM3.82055 12.6667H12.1795C12.2265 12.6667 12.2672 12.6528 12.3014 12.625C12.3355 12.5972 12.359 12.5598 12.3719 12.5128L13.8 7.33333H2.20005L3.62821 12.5128C3.6411 12.5598 3.6646 12.5972 3.69871 12.625C3.73294 12.6528 3.77355 12.6667 3.82055 12.6667ZM8.00005 11C8.27271 11 8.50755 10.9015 8.70455 10.7045C8.90155 10.5075 9.00005 10.2727 9.00005 10C9.00005 9.72733 8.90155 9.4925 8.70455 9.2955C8.50755 9.0985 8.27271 9 8.00005 9C7.72738 9 7.49255 9.0985 7.29555 9.2955C7.09855 9.4925 7.00005 9.72733 7.00005 10C7.00005 10.2727 7.09855 10.5075 7.29555 10.7045C7.49255 10.9015 7.72738 11 8.00005 11ZM6.04621 6.33333H9.94371L7.98971 3.39233L6.04621 6.33333Z" fill="#1C1B1F"/>
</g>
</svg>
