<svg width="22" height="24" viewBox="0 0 22 24" fill="none" xmlns="http://www.w3.org/2000/svg">
<mask id="mask0_2850_119" style="mask-type:alpha" maskUnits="userSpaceOnUse" x="0" y="0" width="22" height="24">
<rect width="22" height="24" transform="matrix(-1 0 0 1 22 0)" fill="#D9D9D9"/>
</mask>
<g mask="url(#mask0_2850_119)">
<path d="M16.2532 3.90405H7.17475V15.9038L13.2564 22.5001L14.0319 21.6538C14.1272 21.55 14.2063 21.4125 14.2691 21.2413C14.332 21.0701 14.3635 20.909 14.3635 20.7578V20.5038L13.3902 15.9038H18.9679C19.4039 15.9038 19.7891 15.7215 20.1234 15.3568C20.4578 14.992 20.625 14.5718 20.625 14.0963V12.4808C20.625 12.377 20.615 12.2648 20.595 12.1443C20.575 12.0238 20.545 11.9116 20.5051 11.8078L17.8784 5.0463C17.7469 4.7258 17.5266 4.4553 17.2175 4.2348C16.9085 4.0143 16.587 3.90405 16.2532 3.90405ZM5.79975 15.9038V3.90405H2.29167V15.9038H5.79975Z" fill="#304BA0"/>
</g>
</svg>
