<svg width="24" height="24" viewBox="0 0 24 24" fill="none" xmlns="http://www.w3.org/2000/svg">
<mask id="mask0_2850_158" style="mask-type:alpha" maskUnits="userSpaceOnUse" x="0" y="0" width="24" height="24">
<rect width="24" height="24" transform="matrix(1 0 0 -1 0 24)" fill="#D9D9D9"/>
</mask>
<g mask="url(#mask0_2850_158)">
<path d="M17.7308 3.49995H7.2115V15.4999L13.8462 22.0959L14.6923 21.2499C14.7961 21.1461 14.8823 21.0086 14.951 20.8374C15.0195 20.6663 15.0538 20.505 15.0538 20.3537V20.0999L13.9923 15.4999H20.6923C21.1679 15.4999 21.5881 15.3175 21.9527 14.9527C22.3176 14.588 22.5 14.1679 22.5 13.6922V12.0769C22.5 11.9731 22.4865 11.8609 22.4595 11.7404C22.4327 11.6199 22.4026 11.5077 22.3693 11.4037L19.5038 4.6422C19.3603 4.3217 19.1199 4.0512 18.7828 3.8307C18.4456 3.6102 18.0949 3.49995 17.7308 3.49995ZM8.7115 4.99995H17.7308C17.8013 4.99995 17.8733 5.0192 17.947 5.0577C18.0208 5.0962 18.077 5.16028 18.1155 5.24995L21 11.9999V13.6922C21 13.782 20.9712 13.8558 20.9135 13.9134C20.8558 13.9711 20.7821 13.9999 20.6923 13.9999H12.0963L13.35 19.4807L8.7115 14.8614V4.99995ZM7.2115 15.4999V13.9999H4V4.99995H7.2115V3.49995H2.5V15.4999H7.2115Z" fill="#304BA0"/>
</g>
</svg>
