<svg width="16" height="16" viewBox="0 0 16 16" fill="none" xmlns="http://www.w3.org/2000/svg">
<mask id="mask0_4073_197" style="mask-type:alpha" maskUnits="userSpaceOnUse" x="0" y="0" width="16" height="16">
<rect width="16" height="16" fill="#E6E6E6"/>
</mask>
<g mask="url(#mask0_4073_197)">
<circle cx="7.9974" cy="7.99996" r="5.33333" fill="white"/>
<path d="M7.0474 10.8333L11.5307 6.34996L10.8307 5.64996L7.0474 9.43329L5.1474 7.53329L4.4474 8.23329L7.0474 10.8333ZM7.9974 14.3333C7.11962 14.3333 6.29473 14.1666 5.52273 13.8333C4.75028 13.5 4.08073 13.05 3.51406 12.4833C2.9474 11.9166 2.4974 11.2471 2.16406 10.4746C1.83073 9.70263 1.66406 8.87774 1.66406 7.99996C1.66406 7.12218 1.83073 6.29707 2.16406 5.52463C2.4974 4.75263 2.9474 4.08329 3.51406 3.51663C4.08073 2.94996 4.75028 2.49996 5.52273 2.16663C6.29473 1.83329 7.11962 1.66663 7.9974 1.66663C8.87517 1.66663 9.70028 1.83329 10.4727 2.16663C11.2447 2.49996 11.9141 2.94996 12.4807 3.51663C13.0474 4.08329 13.4974 4.75263 13.8307 5.52463C14.1641 6.29707 14.3307 7.12218 14.3307 7.99996C14.3307 8.87774 14.1641 9.70263 13.8307 10.4746C13.4974 11.2471 13.0474 11.9166 12.4807 12.4833C11.9141 13.05 11.2447 13.5 10.4727 13.8333C9.70028 14.1666 8.87517 14.3333 7.9974 14.3333ZM7.9974 13.3333C9.48628 13.3333 10.7474 12.8166 11.7807 11.7833C12.8141 10.75 13.3307 9.48885 13.3307 7.99996C13.3307 6.51107 12.8141 5.24996 11.7807 4.21663C10.7474 3.18329 9.48628 2.66663 7.9974 2.66663C6.50851 2.66663 5.2474 3.18329 4.21406 4.21663C3.18073 5.24996 2.66406 6.51107 2.66406 7.99996C2.66406 9.48885 3.18073 10.75 4.21406 11.7833C5.2474 12.8166 6.50851 13.3333 7.9974 13.3333Z" fill="#CDCDCC"/>
</g>
</svg>
